<svg width="71" height="138" viewBox="0 0 71 138" fill="none" xmlns="http://www.w3.org/2000/svg">
  <path id="dd81dc9168544c2eeda117aa47ebf09c" d="M32.1711 1.57507C31.8805 1.85721 31.6267 2.17611 31.4188 2.52401L1.41834 52.5257C-0.446297 55.6362 1.79311 59.5911 5.41915 59.5925L30.421 59.5939L30.421 132.205C30.2832 139.008 40.5581 139.008 40.4195 132.205L40.4195 59.5939L65.4214 59.5925C69.0475 59.5911 71.2869 55.6362 69.4222 52.5257L39.4232 2.52543C37.8746 -0.0526842 34.3299 -0.517258 32.1711 1.57507ZM35.4189 13.9968L57.1772 50.2594L13.6605 50.2594L35.4189 13.9968ZM33.7218 27.0769C33.5578 27.2324 33.4156 27.4085 33.299 27.6016L23.2983 43.6013C21.5313 46.429 25.7725 49.0792 27.5396 46.2515L37.5388 30.2504C39.1411 27.7684 35.8693 25.0482 33.7218 27.0769Z" fill="black"></path>
</svg>