<svg width="183" height="110" viewBox="0 0 183 110" fill="none" xmlns="http://www.w3.org/2000/svg">
  <path id="8db824aea9964c84617e16cde1423e69" d="M5.87621 0.000104884C3.37612 -0.0168565 1.32934 2.0255 1.28733 4.57769L0.329889 62.7463C0.27127 66.3651 4.10006 68.6658 7.16876 66.856L28.3575 54.3634C48.7051 88.5057 85.0576 109.451 124.32 109.451C144.386 109.451 163.698 103.984 180.496 94.08C186.139 90.7546 181.253 82.1113 175.611 85.4377C160.273 94.4821 142.648 99.4737 124.32 99.4737C88.5328 99.4737 55.4248 80.443 36.8192 49.3747L57.9347 36.9241C61.0024 35.1142 60.9653 30.5785 57.8682 28.8215L8.05977 0.584781C7.39151 0.205643 6.64119 0.00509353 5.87621 0.000104884ZM10.2765 12.4927L46.4004 32.9711L9.5819 54.6797L10.2765 12.4927ZM17.5472 22.881C14.9788 22.8721 14.1385 26.397 16.4237 27.5953L32.7002 36.4302C35.6018 38.0805 37.9554 33.5597 34.9942 32.0262L18.7177 23.1893C18.3581 22.9878 17.9556 22.882 17.5472 22.881Z" fill="black"></path>
</svg>