<svg width="183" height="110" viewBox="0 0 183 110" fill="none" xmlns="http://www.w3.org/2000/svg">
  <path id="8db824aea9964c84617e16cde1423e69" d="M177.453 0.000104884C179.953 -0.0168565 182 2.0255 182.042 4.57769L182.999 62.7463C183.058 66.3651 179.229 68.6658 176.16 66.856L154.972 54.3634C134.624 88.5057 98.2716 109.451 59.0096 109.451C38.9434 109.451 19.6314 103.984 2.83319 94.08C-2.80985 90.7546 2.07604 82.1113 7.71811 85.4377C23.0567 94.4821 40.6815 99.4737 59.0096 99.4737C94.7965 99.4737 127.904 80.443 146.51 49.3747L125.395 36.9241C122.327 35.1142 122.364 30.5785 125.461 28.8215L175.269 0.584781C175.938 0.205643 176.688 0.00509353 177.453 0.000104884ZM173.053 12.4927L136.929 32.9711L173.747 54.6797L173.053 12.4927ZM165.782 22.881C168.35 22.8721 169.191 26.397 166.906 27.5953L150.629 36.4302C147.727 38.0805 145.374 33.5597 148.335 32.0262L164.612 23.1893C164.971 22.9878 165.374 22.882 165.782 22.881Z" fill="black"></path>
</svg>