<?xml version="1.0" encoding="iso-8859-1"?>
<!-- Generator: Adobe Illustrator 18.1.1, SVG Export Plug-In . SVG Version: 6.00 Build 0)  -->
<svg version="1.1" id="Capa_1" xmlns="http://www.w3.org/2000/svg" xmlns:xlink="http://www.w3.org/1999/xlink" x="0px" y="0px"
	 viewBox="0 0 289.339 289.339" style="enable-background:new 0 0 289.339 289.339;" xml:space="preserve">
<g>
	<path id="path5596" d="M284.743,0.002c-0.405-0.006-0.81,0.04-1.203,0.139l-56.57,14.143c-3.518,0.881-4.731,5.261-2.168,7.826
		l17.678,17.68l-51.344,51.344c-4.908,4.713,2.358,11.978,7.07,7.07l51.344-51.344l17.68,17.678c2.565,2.563,6.945,1.35,7.826-2.168
		l14.143-56.568C289.927,2.884,287.749,0.049,284.743,0.002z M278.256,11.082L268,52.109l-30.771-30.771L278.256,11.082z
		 M267.807,19.131c-0.226-0.006-0.451,0.018-0.67,0.072l-18.385,4.242c-3.249,0.75-2.124,5.623,1.125,4.873l18.385-4.244
		C271.15,23.452,270.76,19.215,267.807,19.131z M94.573,189.619c-1.299,0.039-2.532,0.582-3.438,1.514L39.79,242.478l-17.678-17.678
		c-0.892-0.892-2.106-1.385-3.367-1.367c-2.116,0.031-3.946,1.482-4.459,3.535L0.143,283.537c-0.853,3.417,2.241,6.511,5.658,5.658
		l56.57-14.143c3.518-0.881,4.731-5.261,2.168-7.826l-17.678-17.678l51.344-51.346C101.476,195.024,99.132,189.484,94.573,189.619z
		 M21.34,237.228l30.771,30.77l-41.027,10.256L21.34,237.228z M40.133,260.947c-0.226-0.006-0.451,0.018-0.67,0.072l-18.385,4.242
		c-3.336,0.694-2.177,5.71,1.125,4.871l18.385-4.242C43.477,265.268,43.087,261.032,40.133,260.947z"/>
</g>
<g>
</g>
<g>
</g>
<g>
</g>
<g>
</g>
<g>
</g>
<g>
</g>
<g>
</g>
<g>
</g>
<g>
</g>
<g>
</g>
<g>
</g>
<g>
</g>
<g>
</g>
<g>
</g>
<g>
</g>
</svg>
