<svg width="48" height="48" viewBox="0 0 48 48" fill="none" xmlns="http://www.w3.org/2000/svg">
<circle cx="24" cy="24" r="24" fill="#1E2D61"/>
<path d="M32.4942 16.7702C32.4942 17.1702 32.3842 17.5402 32.1642 17.8802L25.8942 26.8502V34.1702C25.8942 34.6902 25.7242 35.1302 25.3842 35.4902C25.0442 35.8302 24.6342 36.0002 24.1542 36.0002C23.6542 36.0002 23.2242 35.8302 22.8642 35.4902C22.5242 35.1302 22.3542 34.6902 22.3542 34.1702V26.4302L16.1142 18.1502C15.7542 17.6702 15.5742 17.2002 15.5742 16.7402C15.5742 16.2202 15.7742 15.7902 16.1742 15.4502C16.5942 15.0902 17.0342 14.9102 17.4942 14.9102C18.0542 14.9102 18.5442 15.1902 18.9642 15.7502L24.2442 23.0402L29.1942 15.8102C29.6142 15.2102 30.1142 14.9102 30.6942 14.9102C31.1742 14.9102 31.5942 15.0902 31.9542 15.4502C32.3142 15.8102 32.4942 16.2502 32.4942 16.7702Z" fill="white"/>
</svg>
