<svg width="271" height="83" viewBox="0 0 271 83" fill="none" xmlns="http://www.w3.org/2000/svg">
<path d="M266.623 12.7784L254.344 11.7196L249.545 0.414062L244.746 11.7367L232.467 12.7784L241.791 20.8563L238.991 32.862L249.545 26.492L260.099 32.862L257.315 20.8563L266.623 12.7784ZM249.545 23.2984L243.123 27.1751L244.831 19.8658L239.161 14.9473L246.641 14.2984L249.545 7.41599L252.465 14.3154L259.945 14.9644L254.275 19.8828L255.983 27.1922L249.545 23.2984Z" fill="#FAC130"/>
<path d="M208.61 12.7784L196.331 11.7196L191.532 0.414062L186.733 11.7367L174.454 12.7784L183.779 20.8563L180.978 32.862L191.532 26.492L202.086 32.862L199.302 20.8563L208.61 12.7784ZM191.532 23.2984L185.111 27.1751L186.818 19.8658L181.149 14.9473L188.629 14.2984L191.532 7.41599L194.452 14.3154L201.932 14.9644L196.263 19.8828L197.97 27.1922L191.532 23.2984Z" fill="#FAC130"/>
<path d="M150.597 12.7784L138.318 11.7196L133.519 0.414062L128.72 11.7367L116.441 12.7784L125.766 20.8563L122.965 32.862L133.519 26.492L144.073 32.862L141.29 20.8563L150.597 12.7784ZM133.519 23.2984L127.098 27.1751L128.806 19.8658L123.136 14.9473L130.616 14.2984L133.519 7.41599L136.44 14.3154L143.92 14.9644L138.25 19.8828L139.958 27.1922L133.519 23.2984Z" fill="#FAC130"/>
<path d="M92.5844 12.7784L80.3055 11.7196L75.5066 0.414062L70.7077 11.7367L58.4287 12.7784L67.7532 20.8563L64.9525 32.862L75.5066 26.492L86.0607 32.862L83.277 20.8563L92.5844 12.7784ZM75.5066 23.2984L69.0853 27.1751L70.7931 19.8658L65.1232 14.9473L72.6033 14.2984L75.5066 7.41599L78.4269 14.3154L85.907 14.9644L80.2372 19.8828L81.9449 27.1922L75.5066 23.2984Z" fill="#FAC130"/>
<path d="M34.5718 12.7784L22.2928 11.7196L17.4939 0.414062L12.695 11.7367L0.416016 12.7784L9.74053 20.8563L6.93976 32.862L17.4939 26.492L28.048 32.862L25.2643 20.8563L34.5718 12.7784ZM17.4939 23.2984L11.0726 27.1751L12.7804 19.8658L7.11054 14.9473L14.5906 14.2984L17.4939 7.41599L20.4142 14.3154L27.8943 14.9644L22.2245 19.8828L23.9322 27.1922L17.4939 23.2984Z" fill="#FAC130"/>
<path d="M17.0014 76.0779L27.5083 82.4479L24.7201 70.4422L34.0028 62.3644L21.7788 61.3226L17.0014 50L12.224 61.3226L0 62.3644L9.28278 70.4422L6.49454 82.4479L17.0014 76.0779Z" fill="#FAC130"/>
<path d="M76.0014 76.0779L86.5083 82.4479L83.7201 70.4422L93.0028 62.3644L80.7788 61.3226L76.0014 50L71.224 61.3226L59 62.3644L68.2828 70.4422L65.4945 82.4479L76.0014 76.0779Z" fill="#FAC130"/>
<path d="M135.001 76.0779L145.508 82.4479L142.72 70.4422L152.003 62.3644L139.779 61.3226L135.001 50L130.224 61.3226L118 62.3644L127.283 70.4422L124.495 82.4479L135.001 76.0779Z" fill="#FAC130"/>
<path d="M194.001 76.0779L204.508 82.4479L201.72 70.4422L211.003 62.3644L198.779 61.3226L194.001 50L189.224 61.3226L177 62.3644L186.283 70.4422L183.495 82.4479L194.001 76.0779Z" fill="#FAC130"/>
<path d="M253.001 76.0779L263.508 82.4479L260.72 70.4422L270.003 62.3644L257.779 61.3226L253.001 50L248.224 61.3226L236 62.3644L245.283 70.4422L242.495 82.4479L253.001 76.0779Z" fill="#FAC130"/>
</svg>
