<?xml version="1.0" encoding="iso-8859-1"?>
<!-- Generator: Adobe Illustrator 18.1.1, SVG Export Plug-In . SVG Version: 6.00 Build 0)  -->
<svg version="1.1" id="Capa_1" xmlns="http://www.w3.org/2000/svg" xmlns:xlink="http://www.w3.org/1999/xlink" x="0px" y="0px"
	 viewBox="0 0 291.294 291.294" style="enable-background:new 0 0 291.294 291.294;" xml:space="preserve">
<g>
	<path id="path5913" d="M5.678,70.978c-2.559-0.017-4.654,2.03-4.697,4.588l-0.98,58.301c-0.06,3.627,3.859,5.933,7,4.119
		l21.688-12.521c20.827,34.22,58.036,55.213,98.223,55.213c20.539,0,40.306-5.479,57.5-15.406c5.776-3.333,0.775-11.996-5-8.662
		c-15.7,9.065-33.74,14.068-52.5,14.068c-36.63,0-70.518-19.074-89.562-50.213l21.613-12.479c3.14-1.814,3.102-6.36-0.068-8.121
		L7.913,71.564C7.229,71.184,6.461,70.983,5.678,70.978z M10.182,83.499l36.975,20.525L9.471,125.782L10.182,83.499z M17.624,93.911
		c-2.629-0.009-3.489,3.524-1.15,4.725l16.66,8.855c2.97,1.654,5.379-2.877,2.348-4.414l-16.66-8.857
		C18.454,94.018,18.042,93.912,17.624,93.911z M164.383,110.611c-20.539,0-40.306,5.479-57.5,15.406
		c-5.909,3.296-0.809,12.13,5,8.66c15.7-9.065,33.74-14.066,52.5-14.066c36.629,0,70.516,19.073,89.561,50.211L232.333,183.3
		c-3.142,1.814-3.104,6.362,0.068,8.123l50.98,28.301c3.08,1.71,6.872-0.479,6.932-4.002l0.98-58.301
		c0.044-2.63-2.094-4.777-4.725-4.744c-0.799,0.009-1.583,0.224-2.275,0.623l-21.689,12.521
		C241.777,131.603,204.569,110.611,164.383,110.611z M281.823,165.505l-0.711,42.283l-36.975-20.525L281.823,165.505z
		 M256.962,183.486c-2.628-0.007-3.486,3.525-1.148,4.725l16.66,8.855c2.97,1.654,5.379-2.877,2.348-4.414l-16.66-8.857
		C257.793,183.592,257.381,183.486,256.962,183.486z"/>
</g>
<g>
</g>
<g>
</g>
<g>
</g>
<g>
</g>
<g>
</g>
<g>
</g>
<g>
</g>
<g>
</g>
<g>
</g>
<g>
</g>
<g>
</g>
<g>
</g>
<g>
</g>
<g>
</g>
<g>
</g>
</svg>
