<svg width="108" height="108" viewBox="0 0 108 108" fill="none" xmlns="http://www.w3.org/2000/svg">
  <g id="1b5af938356ed7bb60b3cbd5808d47d4">
    <path d="M108 54C108 83.8234 83.8234 108 54 108C24.1766 108 0 83.8234 0 54C0 24.1766 24.1766 0 54 0C83.8234 0 108 24.1766 108 54Z" fill="black"></path>
    <path d="M69.5667 29.384C70.6707 29.384 71.6547 29.816 72.5187 30.68C73.4307 31.496 73.8867 32.552 73.8867 33.848C73.8867 34.28 73.8147 34.736 73.6707 35.216C73.5747 35.648 73.3827 36.08 73.0947 36.512L56.7507 59.912L58.0467 54.944V75.608C58.0467 76.856 57.6147 77.912 56.7507 78.776C55.9347 79.592 54.9747 80 53.8707 80C52.6707 80 51.6387 79.592 50.7747 78.776C49.9587 77.912 49.5507 76.856 49.5507 75.608V55.52L50.1267 57.824L34.5747 37.16C34.0947 36.536 33.7587 35.936 33.5667 35.36C33.3747 34.784 33.2787 34.256 33.2787 33.776C33.2787 32.48 33.7827 31.424 34.7907 30.608C35.7987 29.792 36.8307 29.384 37.8867 29.384C39.2307 29.384 40.4067 30.056 41.4147 31.4L55.2387 50.48L53.2227 50.192L65.9667 31.544C66.9747 30.104 68.1747 29.384 69.5667 29.384Z" fill="white"></path>
  </g>
</svg>